<svg width="20" height="18" viewBox="0 0 20 18" fill="none" xmlns="http://www.w3.org/2000/svg">
<path d="M7.49999 16.5V10.3333C7.49999 9.86662 7.49999 9.63327 7.59082 9.45501C7.67072 9.29821 7.7982 9.17072 7.955 9.09083C8.13326 9 8.36662 9 8.83333 9H11.1667C11.6334 9 11.8667 9 12.045 9.09083C12.2018 9.17072 12.3293 9.29821 12.4092 9.45501C12.5 9.63327 12.5 9.86662 12.5 10.3333V16.5M1.66666 6.91667L9.19999 1.26667C9.48687 1.0515 9.63032 0.943924 9.78785 0.902454C9.92691 0.865849 10.0731 0.865849 10.2121 0.902454C10.3697 0.943924 10.5131 1.05151 10.8 1.26667L18.3333 6.91667M3.33333 5.66667V13.8333C3.33333 14.7668 3.33333 15.2335 3.51498 15.59C3.67477 15.9036 3.92974 16.1586 4.24334 16.3183C4.59986 16.5 5.06657 16.5 5.99999 16.5H14C14.9334 16.5 15.4001 16.5 15.7566 16.3183C16.0702 16.1586 16.3252 15.9036 16.485 15.59C16.6667 15.2335 16.6667 14.7668 16.6667 13.8333V5.66667L11.6 1.86667C11.0262 1.43634 10.7393 1.22118 10.4243 1.13824C10.1462 1.06503 9.85383 1.06503 9.57571 1.13824C9.26064 1.22118 8.97376 1.43634 8.39999 1.86667L3.33333 5.66667Z" stroke="#1D2939" stroke-width="1.5" stroke-linecap="round" stroke-linejoin="round"/>
</svg>
